<svg xmlns="http://www.w3.org/2000/svg" viewBox="0 0 1024.497 1024.497"><path d="M512.217 0C290.211 0 109.598 180.613 109.598 402.619c0 27.629 2.801 55.211 8.326 82.04a30.2 30.2 0 00.635 4.19c46.046 207.097 166.002 390.707 337.466 516.792 16.376 12.335 35.947 18.856 56.592 18.856a94.415 94.415 0 0046.721-12.39 29.848 29.848 0 002.794-1.805l12.437-9.11c166.889-125.135 284.193-305.419 330.294-507.643a28.62 28.62 0 00.628-4.064c6.246-28.178 9.409-57.385 9.409-86.866C914.899 180.613 734.255 0 512.217 0zm333.637 479.951a29.611 29.611 0 00-.651 4.12c-43.543 186.741-152.372 353.128-306.596 468.76l-10.413 7.627c-11.417 5.885-25.557 4.849-36.182-3.162C333.04 840.4 221.716 670.835 178.22 479.496a30.854 30.854 0 00-.557-3.633c-5.179-23.886-7.8-48.533-7.8-73.243 0-188.774 153.58-342.354 342.354-342.354 188.813 0 342.417 153.58 342.417 342.354 0 26.333-2.95 52.354-8.78 77.331z"/><path d="M512.225 230.284c-95.011 0-172.303 77.308-172.303 172.327 0 94.995 77.292 172.28 172.303 172.28 95.034 0 172.35-77.284 172.35-172.28 0-95.018-77.316-172.327-172.35-172.327zm0 284.342c-61.779 0-112.039-50.252-112.039-112.015 0-61.795 50.26-112.062 112.039-112.062 61.802 0 112.086 50.268 112.086 112.062 0 61.764-50.283 112.015-112.086 112.015z"/></svg>