<svg width="150" height="150" fill="none" xmlns="http://www.w3.org/2000/svg"><path d="M146.341 69.464c-1.407 0-6.754 1.961-9.568 3.082-.281-1.121-1.407-1.962-2.814-1.962s-2.815.841-2.815 1.962l-5.347-.84c-.844-11.49-5.347-21.577-12.382-29.702l3.095-4.484c.845.56 2.533.56 3.377-.56 1.126-1.12 1.408-2.522.563-3.363 2.815-1.12 8.162-3.362 9.006-4.483 1.126-1.4.281-4.203-1.689-6.445-2.251-1.96-5.065-2.802-6.472-1.68-1.126.84-3.378 6.164-4.503 8.966-.845-.56-2.533-.28-3.377.56-1.126 1.121-1.407 2.522-.563 3.363l-4.503 3.082a51.765 51.765 0 00-29.831-12.33l-.844-5.324c1.125-.28 1.97-1.4 1.97-2.802 0-1.4-.845-2.522-1.97-2.802 1.125-2.802 3.095-8.126 3.095-9.527-.281-1.961-2.814-3.362-5.91-3.362-3.095 0-5.628 1.4-5.91 3.362 0 1.401 1.97 6.725 3.096 9.527-1.126.28-1.97 1.401-1.97 2.802s.844 2.802 1.97 2.802l-.844 5.324c-11.539.84-21.67 5.324-29.831 12.329l-4.503-3.082c.563-.84.563-2.522-.563-3.363-1.126-1.12-2.533-1.4-3.377-.56-1.126-2.802-3.377-7.846-4.503-8.967-1.407-1.12-4.221-.28-6.191 1.962-2.252 1.961-3.096 4.763-1.97 6.444.844 1.121 6.191 3.363 9.005 4.484-.563.84-.281 2.522.563 3.362 1.126 1.121 2.533 1.401 3.377.56l3.096 4.484C29.268 50.41 24.765 60.777 23.92 71.985l-5.347.841c-.281-1.12-1.407-1.961-2.814-1.961s-2.533.84-2.814 1.961c-2.815-1.12-8.162-3.082-9.569-3.082C1.407 70.024 0 72.546 0 75.628c0 3.082 1.407 5.604 3.377 5.884 1.407 0 6.754-1.961 9.569-3.082.281 1.12 1.407 1.961 2.814 1.961s2.814-.84 2.814-1.96l5.347.84c.845 11.488 5.347 21.575 12.383 29.701l-2.814 4.203c-.845-.56-2.533-.56-3.377.561-1.126 1.121-1.408 2.522-.563 3.362-2.815 1.121-7.88 3.363-9.006 4.483-1.126 1.401-.281 4.203 1.689 6.445 2.251 2.242 5.065 3.082 6.472 1.681 1.126-.84 3.378-6.164 4.503-8.966.845.56 2.533.28 3.377-.561 1.126-1.12 1.407-2.521.563-3.362l4.503-3.082a51.77 51.77 0 0029.831 12.329l.844 5.324c-1.125.28-1.97 1.401-1.97 2.802s.845 2.521 1.97 2.802c-1.125 2.802-3.095 8.126-3.095 9.527.281 1.961 2.814 3.362 5.91 3.362 3.095 0 5.628-1.401 5.91-3.362 0-1.401-1.97-6.725-3.096-9.527 1.126-.281 1.97-1.401 1.97-2.802s-.844-2.802-1.97-2.802l.844-5.324c11.539-.841 21.67-5.324 29.831-12.329l4.503 3.082c-.563.841-.563 2.522.563 3.362 1.126 1.121 2.533 1.401 3.377.561 1.126 2.802 3.377 8.126 4.503 8.966 1.407 1.121 4.221.281 6.473-1.681 2.251-2.242 3.095-5.044 1.688-6.445-.844-1.12-6.191-3.362-9.005-4.483.563-.84.281-2.522-.563-3.362-1.126-1.121-2.533-1.401-3.377-.561l-3.096-4.483c7.036-8.126 11.539-18.493 12.383-29.701l5.347-.841c.281 1.12 1.407 1.961 2.814 1.961s2.533-.84 2.814-1.961c2.815 1.12 8.162 3.082 9.569 3.082 1.97-.28 3.377-2.802 3.377-5.884-.563-2.802-1.97-5.604-3.659-5.884zM30.957 77.309c-1.126 0-1.97-.84-1.97-1.961s.844-1.962 1.97-1.962 1.97.841 1.97 1.962c0 1.12-.844 1.961-1.97 1.961zm73.452-34.185c.844-.84 1.97-.84 2.814 0 .845.841.845 1.962 0 2.802-.844.841-1.97.841-2.814 0a2.536 2.536 0 010-2.802zm-29.55-13.17c1.126 0 1.97.841 1.97 1.962s-.844 1.962-1.97 1.962c-1.125 0-1.97-.84-1.97-1.962 0-1.12.845-1.961 1.97-1.961zm-32.364 13.17c.845-.84 1.97-.84 2.815 0 .844.841.844 1.962 0 2.802-.845.841-1.97.841-2.815 0a2.536 2.536 0 010-2.802zm5.066 8.126l2.251 2.242c.563.56 1.126.56 1.689.28l3.096 3.082c-.845 1.962 0 5.044 2.532 7.566 2.815 2.802 6.755 3.642 8.443 1.961-2.251 2.242-3.658 5.324-3.658 8.687v-.841H50.938c-.281 0-.563-.28-.563-.84 0-.561.282-.841.563-.841h11.539v-.28c0-.841-.845-1.682-1.689-1.682H49.812c-.563 0-1.97 1.682-2.814 3.083h-3.377c-.281-.56-.844-1.121-1.407-1.121h-3.659c.563-7.846 3.659-15.411 9.006-21.296zm-2.251 56.321c-.845.841-1.97.841-2.815 0-.844-.84-.844-1.961 0-2.802.845-.84 1.97-.84 2.815 0 .844.841.844 1.962 0 2.802zm2.251-8.126c-5.347-5.884-8.724-13.73-9.287-22.136h3.658c.563 0 1.408-.56 1.408-1.12h3.095c.845 1.4 2.252 3.362 2.814 3.362h10.976c.844 0 1.689-.56 1.689-1.401v-.56H50.938c-.281 0-.563-.28-.563-.841 0-.56.282-.84.563-.84h11.539v-.841c0 3.362 1.407 6.444 3.658 8.686-1.689-1.681-5.628-.84-8.443 1.961-2.532 2.522-3.377 5.604-2.532 7.566l-3.096 3.082c-.563-.28-1.407-.28-1.689.28l-2.814 2.802zm27.298 21.576c-1.125 0-1.97-.841-1.97-1.961 0-1.121.845-1.962 1.97-1.962 1.126 0 1.97.841 1.97 1.962 0 1.12-.844 1.961-1.97 1.961zm32.364-13.45c-.844.841-1.97.841-2.814 0-.844-.84-.844-1.961 0-2.802.844-.84 1.97-.84 2.814 0 .845.841.845 1.962 0 2.802zm-5.065-8.126l-2.252-2.241c-.563-.56-1.126-.56-1.688-.28l-3.096-3.083c.844-1.961 0-5.043-2.533-7.565-2.814-2.802-6.754-3.643-8.443-1.962-1.688 1.682-.844 5.604 1.97 8.407 2.533 2.521 5.629 3.362 7.599 2.521l3.096 3.082c-.282.56-.282 1.401.28 1.682l2.252 2.241c-5.91 5.324-13.508 8.687-21.95 9.247v-3.643c0-.56-.564-1.401-1.127-1.401v-3.362c1.126-.841 3.096-2.242 3.096-2.802V89.358c0-.84-.844-1.681-1.688-1.681h-.282v11.488c0 .28-.281.56-.844.56s-.844-.28-.844-.56V87.957h-1.689v11.208c0 .28-.281.56-.844.56s-.845-.28-.845-.56V87.957h-.562c-.845 0-1.407.84-1.407 1.681v10.928c0 .561 1.97 1.962 3.377 2.802v3.082c-.563.281-1.126.841-1.126 1.401v3.643c-8.443-.56-16.323-3.923-22.233-9.247l2.252-2.241c.563-.56.563-1.121.281-1.681l3.096-3.083c1.97.84 5.065 0 7.598-2.522 2.815-2.802 3.659-6.724 1.97-8.406 2.252 2.242 5.347 3.643 8.724 3.643 7.036 0 12.383-5.604 12.383-12.329 0-7.005-5.628-12.329-12.383-12.329-3.377 0-6.472 1.401-8.724 3.643 1.689-1.681.844-5.604-1.97-8.406-2.533-2.522-5.628-3.363-7.598-2.522l-3.096-3.083c.282-.56.282-1.4-.281-1.68l-2.252-2.242c5.91-5.324 13.79-8.687 22.233-9.247v3.643c0 .56.563 1.4 1.126 1.4v3.083c-1.407.84-3.377 2.242-3.377 2.802v10.928c0 .84.562 1.681 1.407 1.681h.563V51.531c0-.28.28-.56.844-.56.563 0 .844.28.844.56v11.488h1.689V51.53c0-.28.281-.56.844-.56s.844.28.844.56v11.488h.282c.844 0 1.688-.84 1.688-1.681V50.41c0-.56-1.688-1.962-3.096-2.802v-3.363c.563-.28 1.126-.84 1.126-1.4v-3.643c8.443.56 16.041 3.922 21.951 8.966l-2.251 2.242c-.563.56-.563 1.12-.281 1.68l-3.096 3.083c-1.97-.84-5.066 0-7.599 2.522-2.814 2.802-3.658 6.725-1.97 8.406 1.689 1.681 5.629.84 8.443-1.961 2.533-2.522 3.377-5.604 2.533-7.566l3.096-3.082c.563.28 1.407.28 1.688-.28l2.252-2.242c5.347 5.884 8.724 13.45 9.287 21.856h-3.659c-.563 0-1.407.56-1.407 1.12h-3.377c-.844-1.12-2.252-3.081-2.814-3.081H89.212c-.844 0-1.689.84-1.689 1.68v.281h11.258c.28 0 .562.28.562.84 0 .561-.281.841-.563.841H87.523v1.401h11.258c.28 0 .562.28.562.84 0 .561-.281.841-.563.841H87.523v.56c0 .841.845 1.402 1.689 1.402h10.976c.562 0 1.97-1.962 2.814-3.363h3.096c.281.56.844 1.121 1.407 1.121h3.658c-.281 8.687-3.658 16.252-9.005 22.136zM66.979 75.348c0-4.203 3.377-7.846 7.88-7.846 4.222 0 7.88 3.363 7.88 7.846 0 4.203-3.377 7.846-7.88 7.846-4.221 0-7.88-3.363-7.88-7.846zm51.783 1.961c-1.126 0-1.97-.84-1.97-1.961s.844-1.962 1.97-1.962c1.125 0 1.97.841 1.97 1.962 0 1.12-.845 1.961-1.97 1.961z" fill="#FFD600"/></svg>